<?xml version="1.0" standalone="no"?>
<!DOCTYPE svg PUBLIC "-//W3C//DTD SVG 20010904//EN"
 "http://www.w3.org/TR/2001/REC-SVG-20010904/DTD/svg10.dtd">
<svg version="1.0" xmlns="http://www.w3.org/2000/svg"
 width="618.000000pt" height="618.000000pt" viewBox="0 0 618.000000 618.000000"
 preserveAspectRatio="xMidYMid meet">
<metadata>
Created by potrace 1.11, written by Peter Selinger 2001-2013
</metadata>
<g transform="translate(0.000000,618.000000) scale(0.100000,-0.100000)"
fill="#000000" stroke="none">
<path d="M1340 5551 c-30 -10 -75 -27 -100 -38 l-44 -20 63 -6 c131 -14 225
-82 238 -171 8 -59 7 -69 -14 -113 -22 -46 -60 -81 -126 -114 -53 -27 -190
-66 -262 -75 -101 -12 -125 -14 -170 -19 -27 -2 -81 -7 -120 -10 -136 -11
-220 -30 -275 -63 -228 -137 -388 -344 -478 -617 -64 -192 -69 -381 -15 -555
52 -166 182 -319 342 -400 63 -31 195 -75 256 -84 124 -18 263 -33 390 -41
145 -9 282 -40 343 -79 77 -49 125 -131 127 -220 0 -32 24 -23 -386 -150
l-117 -36 15 -43 c8 -23 33 -100 55 -172 22 -71 51 -166 64 -210 45 -145 55
-180 56 -192 2 -16 -2 -16 50 1 24 8 84 27 133 42 50 14 95 29 101 31 6 2 22
-22 34 -54 64 -160 204 -404 285 -498 197 -229 391 -350 650 -406 102 -22 332
-19 449 6 106 22 246 70 326 110 311 158 525 471 576 844 3 25 8 57 10 71 6
37 6 262 0 290 -3 14 -8 48 -10 75 -12 119 -47 279 -101 461 -48 162 -92 335
-106 419 -37 220 -1 433 90 537 107 121 363 175 499 105 28 -15 52 -31 52 -35
0 -4 -46 -20 -103 -36 -56 -16 -109 -33 -118 -37 -15 -7 -10 -31 43 -201 32
-106 61 -202 63 -213 3 -11 9 -31 14 -45 6 -14 19 -58 31 -98 25 -87 3 -86
240 -12 91 28 172 53 180 55 40 9 764 231 802 246 l26 11 -20 56 c-10 32 -21
64 -23 72 -1 8 -18 62 -36 120 -18 58 -34 110 -35 115 -5 26 -76 250 -80 254
-5 5 -27 -1 -158 -40 l-78 -24 -17 22 c-9 11 -25 33 -36 49 -40 56 -143 170
-190 209 -280 236 -578 313 -938 245 -363 -69 -641 -267 -786 -560 -66 -132
-109 -265 -126 -390 -13 -96 -15 -118 -15 -205 -1 -146 26 -367 62 -500 5 -22
11 -44 13 -50 8 -38 22 -86 56 -200 129 -436 139 -656 36 -848 -34 -64 -67
-97 -136 -131 -104 -53 -261 -76 -340 -52 -133 42 -244 159 -347 367 -24 48
-44 91 -44 96 0 5 55 26 123 47 67 21 123 40 125 41 2 2 -6 31 -17 66 -42 132
-122 395 -126 409 -2 8 -13 46 -25 84 -25 79 -4 78 -200 16 -74 -23 -143 -44
-153 -45 -9 -2 -22 -7 -28 -11 -25 -15 -1 17 73 97 157 173 237 281 288 391
103 224 10 360 -270 397 -101 13 -329 5 -440 -15 -14 -3 -92 -7 -175 -9 -216
-5 -280 18 -352 126 -92 139 24 305 327 467 171 91 267 183 347 329 57 104 84
183 99 293 13 88 5 215 -17 280 -17 50 -76 137 -109 160 -73 52 -189 64 -290
31z"/>
<path d="M4935 3293 c-1 -84 -11 -151 -33 -213 -54 -154 -118 -237 -397 -515
-241 -241 -296 -307 -363 -440 -34 -70 -99 -238 -106 -280 -3 -16 -11 -54 -17
-84 -7 -31 -12 -112 -11 -181 1 -152 31 -285 90 -400 32 -62 37 -80 30 -100
-6 -14 -12 -86 -15 -160 -3 -74 -6 -136 -7 -137 -1 -1 -161 -5 -356 -8 -195
-3 -434 -7 -530 -10 -96 -3 -269 -7 -385 -10 -735 -19 -1105 -41 -1090 -65 16
-26 627 -52 1780 -77 455 -9 1842 -10 2030 -1 199 10 377 23 450 34 218 31
228 62 30 89 -76 11 -100 14 -122 14 -22 1 -22 4 -23 134 0 119 -9 199 -24
214 -2 3 6 22 18 42 31 49 60 114 81 181 23 74 28 271 10 377 -34 202 -118
420 -199 516 l-32 39 -56 -69 c-83 -100 -190 -200 -240 -223 -36 -16 -46 -17
-63 -6 -41 27 -63 161 -39 246 7 25 30 92 52 150 45 119 53 157 53 253 -1 183
-76 333 -251 502 -223 216 -254 245 -259 245 -4 0 -6 -26 -6 -57z"/>
</g>
</svg>
